<svg width="12" height="12" viewBox="0 0 12 12" fill="none" xmlns="http://www.w3.org/2000/svg">
<path d="M8.11441 3.52313L11.3797 4.01995C11.6501 4.05978 11.8773 4.25663 11.9636 4.52613C12.05 4.79797 11.9795 5.09325 11.7841 5.29479L9.41642 7.6898L9.9754 11.1253C10.0208 11.4065 9.90951 11.6924 9.68228 11.8588C9.45732 12.0252 9.15966 12.0463 8.91652 11.9127L5.99892 10.3074L3.08359 11.9127C2.83819 12.0463 2.54052 12.0252 2.31556 11.8588C2.09061 11.6924 1.97699 11.4065 2.02471 11.1253L2.58369 7.6898L0.215526 5.29479C0.0198835 5.09325 -0.0496481 4.79797 0.0362439 4.52613C0.121909 4.25663 0.348454 4.05978 0.6209 4.01995L3.88343 3.52313L5.34678 0.422036C5.46721 0.16388 5.7217 0 5.99892 0C6.27841 0 6.53291 0.16388 6.65334 0.422036L8.11441 3.52313Z" fill="#F0B724"/>
</svg>
