<svg width="123" height="24" viewBox="0 0 123 24" fill="none" xmlns="http://www.w3.org/2000/svg">
<path d="M79.1683 0.0637815C79.9292 -0.0485295 80.7183 0.021665 81.4933 0.021665C81.9583 0.00762612 82.3388 0.400715 82.4938 0.807842C82.6065 1.2992 82.5502 1.8046 82.5502 2.29596C82.4797 5.87588 82.5643 9.45579 82.5079 13.0357C82.4938 13.3726 82.4938 13.7096 82.5079 14.0465C82.6065 13.6955 82.6911 13.3446 82.7615 12.9796C82.8743 12.4742 83.0293 11.9968 83.2407 11.5195C84.4948 8.65558 87.3694 6.56378 90.4976 6.29704C93.2313 6.01627 96.0778 7.08322 97.9096 9.1329C99.206 10.4947 99.9529 12.3057 100.221 14.1448C100.573 11.5616 101.996 9.09078 104.237 7.70093C106.618 6.11454 109.789 5.81972 112.424 6.88668C114.213 7.6167 115.763 8.92232 116.736 10.5929C118.215 12.9936 118.356 16.1243 117.215 18.6934C116.101 21.1923 113.79 23.1437 111.085 23.7193C108.422 24.3651 105.491 23.6631 103.391 21.9083C101.658 20.4342 100.432 18.2862 100.263 15.9979C100.249 15.9979 100.207 15.9979 100.192 15.9979C99.967 18.7215 98.3183 21.2625 95.9791 22.6664C93.7668 24.0281 90.9345 24.323 88.4685 23.4806C85.6503 22.54 83.4097 20.0973 82.7334 17.2193C82.6629 16.9245 82.6347 16.6016 82.4515 16.3348C82.1415 18.188 81.3101 19.985 79.9574 21.3186C78.6751 22.6243 76.9841 23.5087 75.1664 23.8316C73.1513 24.1685 71.0235 23.8316 69.248 22.8208C67.1766 21.6415 65.5984 19.6199 65.0066 17.3176C64.9784 17.1631 64.9502 17.0227 64.9361 16.8683C60.5397 16.8824 56.1573 16.8683 51.7608 16.8683C51.9863 17.4299 52.2822 17.9634 52.719 18.3845C54.2127 20.0692 56.8478 20.3359 58.8628 19.5217C59.4546 19.3251 59.9337 18.6793 60.596 18.8338C61.2724 19.0865 61.8501 19.5357 62.5124 19.8446C62.907 20.0832 63.4706 20.2657 63.5411 20.7852C63.6256 21.2625 63.1465 21.5433 62.8506 21.8381C60.6524 23.7895 57.51 24.2528 54.6918 23.8456C52.1131 23.4104 49.7458 21.7679 48.5057 19.4655C47.4771 17.6966 47.1671 15.5767 47.5053 13.5692C47.5898 13.0076 47.8294 12.4742 47.928 11.9126C46.6175 10.2279 44.0811 9.73657 42.1647 10.6491C40.6992 11.2949 39.6705 12.769 39.5296 14.3554C39.4169 17.2333 39.4451 20.1113 39.431 22.9752C39.3746 23.4526 38.9941 23.9018 38.4869 23.9018C37.7541 23.9299 37.0073 23.958 36.2745 23.8878C35.7532 23.8456 35.4009 23.3402 35.4572 22.8348C35.4572 20.6307 35.4291 18.4407 35.4713 16.2366C35.4291 16.4331 35.3868 16.6297 35.3304 16.8262C35.0627 17.823 34.7104 18.8057 34.2031 19.7042C33.2449 21.2063 31.8781 22.4839 30.2153 23.1858C28.2284 24.0983 25.8893 24.1826 23.8179 23.5228C20.9151 22.5962 18.5196 20.0551 17.9418 17.0368C17.8573 16.6718 17.7727 16.3068 17.6882 15.9418C17.6177 16.4331 17.5332 16.9385 17.4205 17.4299C16.9554 19.3111 15.8281 20.9958 14.2781 22.1469C12.5872 23.4806 10.3748 24.1124 8.23297 23.9439C5.51336 23.7895 2.94875 22.2593 1.46917 19.999C0.525057 18.6091 0.00368148 16.9385 0.00368148 15.2679C-0.0667747 12.9234 0.877338 10.5649 2.5542 8.92232C4.25924 7.15342 6.75339 6.17069 9.20526 6.28301C11.2344 6.3532 13.2354 7.12534 14.7431 8.47307C16.42 9.90504 17.4486 11.9968 17.7305 14.1588C17.9982 12.5022 18.59 10.8597 19.6891 9.5681C21.3519 7.47631 24.0011 6.24089 26.6784 6.28301C30.2999 6.25493 33.7663 8.71173 34.95 12.1091C35.0909 12.5443 35.2036 12.9796 35.3304 13.4288C35.3727 13.6675 35.415 13.9061 35.4713 14.1588C35.4291 12.0951 35.4713 10.0454 35.4572 7.98171C35.4713 7.57458 35.4009 7.06918 35.7673 6.78841C36.2604 6.38128 36.9368 6.53571 37.5287 6.50763C38.0641 6.53571 38.7123 6.39532 39.121 6.81648C39.431 7.06918 39.4028 7.50439 39.4592 7.85536C40.4455 7.22361 41.4883 6.61994 42.6579 6.39532C44.7152 6.01627 46.9416 6.38128 48.7171 7.50439C49.2667 7.81324 49.6894 8.29057 50.2108 8.64154C50.6758 8.33268 51.0844 7.93959 51.5635 7.64478C53.1699 6.64802 55.0863 6.15666 56.9746 6.32512C59.0319 6.46551 61.0047 7.39208 62.4843 8.82404C63.6961 10.0033 64.5416 11.5476 64.9502 13.1761C65.387 11.5476 66.1762 9.98927 67.4021 8.82404C68.6421 7.60266 70.2485 6.81648 71.9395 6.43743C73.5036 6.19877 75.1382 6.25493 76.6178 6.81648C77.266 7.04111 77.8719 7.364 78.4637 7.70093C78.4637 5.51087 78.4496 3.30676 78.4919 1.1167C78.4778 0.639376 78.8019 0.274365 79.1683 0.0637815ZM7.71159 10.4526C6.07701 10.8597 4.68197 12.1653 4.23105 13.7938C3.55467 15.8716 4.59743 18.3143 6.52793 19.3392C7.76796 20.0411 9.3039 20.1253 10.6426 19.6199C11.6712 19.1847 12.5731 18.4407 13.1085 17.458C13.644 16.5454 13.799 15.4644 13.6722 14.4256C13.4185 12.6286 12.0658 11.0562 10.3326 10.5227C9.48709 10.256 8.57116 10.242 7.71159 10.4526ZM25.4666 10.4385C24.0152 10.7614 22.8174 11.8424 22.1692 13.1621C21.6619 14.3273 21.6337 15.7031 22.0988 16.8964C22.5919 18.1318 23.6065 19.1426 24.8465 19.6199C25.6357 19.9569 26.5234 19.9148 27.3689 19.8726C28.933 19.6901 30.2858 18.567 30.9762 17.1912C31.5258 15.9979 31.5681 14.594 31.1031 13.3726C30.2858 11.1966 27.7352 9.83484 25.4666 10.4385ZM54.7763 10.5508C53.649 10.8737 52.7331 11.688 52.099 12.6426C52.0145 12.8392 51.9299 13.0217 51.8454 13.2182C52.1554 13.2323 52.4795 13.2323 52.8036 13.2182C55.4104 13.2323 58.0314 13.2603 60.6383 13.2042C59.7928 10.958 57.0309 9.75061 54.7763 10.5508ZM72.6581 10.4104C71.0376 10.7754 69.6426 11.9968 69.079 13.5551C68.5858 14.931 68.7689 16.5173 69.5721 17.7387C70.6994 19.5217 73.0809 20.4061 75.0959 19.7182C77.111 19.1286 78.5624 17.0789 78.4637 15.0012C78.4496 13.2603 77.3646 11.6318 75.8287 10.8316C74.8564 10.3543 73.7291 10.1718 72.6581 10.4104ZM90.2863 10.4385C88.5108 10.8316 87.0312 12.3197 86.6507 14.0886C86.1434 16.0962 87.2003 18.3284 89.004 19.3111C90.244 20.0692 91.8504 20.1253 93.1891 19.5919C94.2459 19.1426 95.1337 18.3284 95.6691 17.3176C96.3032 16.0962 96.3596 14.594 95.8382 13.3165C94.9927 11.1966 92.5268 9.84888 90.2863 10.4385ZM107.914 10.4526C106.139 10.8737 104.688 12.404 104.349 14.1869C104.068 15.5487 104.448 17.0087 105.293 18.1037C106.674 19.9148 109.394 20.5044 111.381 19.3672C113.382 18.3424 114.439 15.8014 113.692 13.6675C113.001 11.3089 110.296 9.79273 107.914 10.4526Z" fill="#EF394E"/>
<path d="M119.032 1.88912C119.849 1.73469 120.737 1.81893 121.456 2.28221C122.597 2.97011 123.231 4.41612 122.921 5.72174C122.611 7.18178 121.188 8.30489 119.694 8.20662C118.032 8.22066 116.496 6.69042 116.594 5.01979C116.51 3.57379 117.637 2.21201 119.032 1.88912Z" fill="#EF394E"/>
</svg>
