<svg width="39" height="36" viewBox="0 0 39 36" fill="none" xmlns="http://www.w3.org/2000/svg">
<path d="M36.6329 25.8826V29.4371C36.6329 32.9917 35.2158 34.4168 31.6533 34.4168H27.3863C26.9271 34.4168 26.5075 34.393 26.1196 34.3376" stroke="#F22D2D" stroke-width="1.5" stroke-linecap="round" stroke-linejoin="round"/>
<path d="M22.4066 29.2868V25.8826" stroke="#F22D2D" stroke-width="1.5" stroke-linecap="round" stroke-linejoin="round"/>
<path d="M29.5238 26.4999C30.9725 26.4999 32.0413 25.3204 31.8988 23.8716L31.3683 18.5833H27.6713L27.1409 23.8716C26.9984 25.3204 28.075 26.4999 29.5238 26.4999Z" stroke="#F22D2D" stroke-width="1.5" stroke-linecap="round" stroke-linejoin="round"/>
<path d="M34.5113 26.4999C36.1104 26.4999 37.2821 25.2016 37.1238 23.6103L36.9021 21.4332C36.6171 19.3749 35.8254 18.5833 33.7512 18.5833H31.3367L31.8908 24.1328C32.0333 25.4391 33.205 26.4999 34.5113 26.4999Z" stroke="#F22D2D" stroke-width="1.5" stroke-linecap="round" stroke-linejoin="round"/>
<path d="M24.4887 26.4999C25.795 26.4999 26.9746 25.4391 27.1012 24.1328L27.2754 22.3833L27.6554 18.5833H25.2408C23.1667 18.5833 22.375 19.3749 22.09 21.4332L21.8683 23.6103C21.71 25.2016 22.8896 26.4999 24.4887 26.4999Z" stroke="#F22D2D" stroke-width="1.5" stroke-linecap="round" stroke-linejoin="round"/>
<path d="M27.125 32.0417C27.125 32.6354 26.9587 33.1975 26.6658 33.6725C26.5154 33.9259 26.3333 34.1554 26.1196 34.3375C26.0958 34.3692 26.0721 34.3929 26.0404 34.4167C25.4863 34.9154 24.7579 35.2083 23.9583 35.2083C22.9925 35.2083 22.1296 34.7729 21.5596 34.0921C21.5437 34.0683 21.52 34.0525 21.5042 34.0288C21.4092 33.9179 21.3221 33.7992 21.2509 33.6725C20.9579 33.1975 20.7917 32.6354 20.7917 32.0417C20.7917 31.0442 21.2508 30.1496 21.9792 29.5717C22.1138 29.4608 22.2562 29.3658 22.4067 29.2867C22.8658 29.0254 23.3963 28.875 23.9583 28.875C24.75 28.875 25.4625 29.16 26.0167 29.6429C26.1117 29.7141 26.1987 29.8013 26.2779 29.8884C26.8004 30.4584 27.125 31.2104 27.125 32.0417Z" stroke="#F22D2D" stroke-width="1.5" stroke-miterlimit="10" stroke-linecap="round" stroke-linejoin="round"/>
<path d="M25.1379 32.0259H22.7788" stroke="#F22D2D" stroke-width="1.5" stroke-miterlimit="10" stroke-linecap="round" stroke-linejoin="round"/>
<path d="M23.9583 30.8701V33.2372" stroke="#F22D2D" stroke-width="1.5" stroke-miterlimit="10" stroke-linecap="round" stroke-linejoin="round"/>
<circle cx="9" cy="9" r="9" fill="#202020"/>
</svg>
